<svg width="14" height="24" viewBox="0 0 14 24" fill="none" xmlns="http://www.w3.org/2000/svg">
<path d="M11.8462 18.5455H2.15385V3.27273H11.8462V18.5455ZM7 22.9091C6.57157 22.9091 6.16069 22.7367 5.85775 22.4298C5.55481 22.1229 5.38462 21.7067 5.38462 21.2727C5.38462 20.8387 5.55481 20.4225 5.85775 20.1156C6.16069 19.8088 6.57157 19.6364 7 19.6364C7.42843 19.6364 7.83931 19.8088 8.14225 20.1156C8.44519 20.4225 8.61539 20.8387 8.61539 21.2727C8.61539 21.7067 8.44519 22.1229 8.14225 22.4298C7.83931 22.7367 7.42843 22.9091 7 22.9091ZM11.3077 0H2.69231C1.97826 0 1.29346 0.287337 0.788559 0.7988C0.283653 1.31026 0 2.00396 0 2.72727V21.2727C0 21.996 0.283653 22.6897 0.788559 23.2012C1.29346 23.7127 1.97826 24 2.69231 24H11.3077C12.0217 24 12.7065 23.7127 13.2114 23.2012C13.7163 22.6897 14 21.996 14 21.2727V2.72727C14 2.00396 13.7163 1.31026 13.2114 0.7988C12.7065 0.287337 12.0217 0 11.3077 0Z" fill="white"/>
</svg>
