<svg width="30" height="34" viewBox="0 0 30 34" fill="none" xmlns="http://www.w3.org/2000/svg">
<path d="M22.2936 12.7399L16.2385 2.74906C15.9632 2.44631 15.5505 2.14355 15.1376 2.14355C14.7248 2.14355 14.3119 2.29493 14.0367 2.74906L7.98165 12.7399H1.37615C0.550459 12.7399 0 13.3454 0 14.2536C0 14.405 0 14.5564 0 14.7078L3.44037 28.7858C3.7156 29.9968 4.81651 31.0564 6.05505 31.0564H23.945C25.1835 31.0564 26.2844 30.1481 26.5596 28.7858L30 14.7078C30 14.5564 30 14.405 30 14.2536C30 13.3454 29.4495 12.7399 28.6239 12.7399H22.2936ZM11.0092 12.7399L15.1376 6.07934L19.2661 12.7399H11.0092ZM15.1376 24.85C13.6239 24.85 12.3853 23.4876 12.3853 21.8225C12.3853 20.1573 13.6239 18.7949 15.1376 18.7949C16.6514 18.7949 17.8899 20.1573 17.8899 21.8225C17.8899 23.4876 16.6514 24.85 15.1376 24.85Z" fill="#212121"/>
</svg>
